HIERARCHY
ROOT Hips
{
	OFFSET -3.958830 18.904000 13.208200
	CHANNELS 6 Xposition Yposition Zposition Zrotation Yrotation Xrotation 
	JOINT LHipJoint
	{
		OFFSET 0.000000 0.000000 0.000000
		CHANNELS 3 Zrotation Yrotation Xrotation
		JOINT LeftUpLeg
		{
			OFFSET 1.800000 -1.400000 0.085000
			CHANNELS 3 Zrotation Yrotation Xrotation
			JOINT LeftLeg
			{
				OFFSET 2.215000 -6.000000 0.000000
				CHANNELS 3 Zrotation Yrotation Xrotation
				JOINT LeftFoot
				{
					OFFSET 2.500000 -6.900000 0.000000
					CHANNELS 3 Zrotation Yrotation Xrotation
					JOINT LeftToeBase
					{
						OFFSET 0.200000 -0.500000 1.950000
						CHANNELS 3 Zrotation Yrotation Xrotation
						End Site
						{
							OFFSET 0.000000 0.000000 0.000000
						}
					}
				}
			}
		}
	}
	JOINT RHipJoint
	{
		OFFSET 0.000000 0.000000 0.000000
		CHANNELS 3 Zrotation Yrotation Xrotation
		JOINT RightUpLeg
		{
			OFFSET -1.800000 -1.400000 0.085000
			CHANNELS 3 Zrotation Yrotation Xrotation
			JOINT RightLeg
			{
				OFFSET -2.215000 -6.000000 0.000000
				CHANNELS 3 Zrotation Yrotation Xrotation
				JOINT RightFoot
				{
					OFFSET -2.500000 -6.900000 0.000000
					CHANNELS 3 Zrotation Yrotation Xrotation
					JOINT RightToeBase
					{
						OFFSET -0.200000 -0.500000 1.950000
						CHANNELS 3 Zrotation Yrotation Xrotation
						End Site
						{
							OFFSET 0.000000 0.000000 0.000000
						}
					}
				}
			}
		}
	}
	JOINT LowerBack
	{
		OFFSET 0.000000 0.000000 0.000000
		CHANNELS 3 Zrotation Yrotation Xrotation
		JOINT Spine
		{
			OFFSET -0.087000 1.940000 -0.288900
			CHANNELS 3 Zrotation Yrotation Xrotation
			JOINT Spine1
			{
				OFFSET 0.000000 1.950000 0.060000
				CHANNELS 3 Zrotation Yrotation Xrotation
				JOINT Neck
				{
					OFFSET 0.000000 0.000000 0.000000
					CHANNELS 3 Zrotation Yrotation Xrotation
					JOINT Neck1
					{
						OFFSET 0.000000 1.600000 0.340000
						CHANNELS 3 Zrotation Yrotation Xrotation
						JOINT Head
						{
							OFFSET 0.000000 1.667000 -0.240000
							CHANNELS 3 Zrotation Yrotation Xrotation
							End Site
							{
								OFFSET 0.000000 0.000000 0.000000
							}
						}
					}
				}
				JOINT LeftShoulder
				{
					OFFSET 0.000000 0.000000 0.000000
					CHANNELS 3 Zrotation Yrotation Xrotation
					JOINT LeftArm
					{
						OFFSET 2.700000 1.550000 -0.730000
						CHANNELS 3 Zrotation Yrotation Xrotation
						JOINT LeftForeArm
						{
							OFFSET 5.450000 0.000000 0.000000
							CHANNELS 3 Zrotation Yrotation Xrotation
							JOINT LeftHand
							{
								OFFSET 3.450000 0.000000 0.000000
								CHANNELS 3 Zrotation Yrotation Xrotation
								JOINT LeftHandIndex1
								{
									OFFSET 0.750000 0.000000 0.000000
									CHANNELS 3 Zrotation Yrotation Xrotation
									End Site
									{
										OFFSET 0.000000 0.000000 0.000000
									}
								}
							}
						}
					}
				}
				JOINT RightShoulder
				{
					OFFSET 0.000000 0.000000 0.000000
					CHANNELS 3 Zrotation Yrotation Xrotation
					JOINT RightArm
					{
						OFFSET -2.700000 1.550000 -0.730000
						CHANNELS 3 Zrotation Yrotation Xrotation
						JOINT RightForeArm
						{
							OFFSET -5.450000 0.000000 0.000000
							CHANNELS 3 Zrotation Yrotation Xrotation
							JOINT RightHand
							{
								OFFSET -3.450000 0.000000 0.000000
								CHANNELS 3 Zrotation Yrotation Xrotation
								JOINT RightHandIndex1
								{
									OFFSET -0.750000 0.000000 0.000000
									CHANNELS 3 Zrotation Yrotation Xrotation
									End Site
									{
										OFFSET 0.000000 0.000000 0.000000
									}
								}
							}
						}
					}
				}
			}
		}
	}
}
MOTION
Frames: 10
Frame Time: 0.016667
-0.988830 16.350030 -3.646070 -6.220093 -4.756787 1.274384 -15.652056 9.740392 5.476092 1.713854 -12.958699 -56.963926 33.354127 -9.294820 71.945835 1.560450 12.905931 0.041880 0.011970 0.034120 0.065780 18.686217 -6.858579 5.262425 -5.776926 19.354993 -52.769585 -3.331277 -12.257571 81.795321 -2.468317 -12.143772 0.157069 -0.229750 0.075660 0.359360 -3.591187 -1.758400 -10.291033 13.548687 -2.470041 62.204545 -6.862534 6.522359 0.360541 1.947133 3.445601 -13.143790 1.819297 -6.173941 51.802007 7.666150 -1.156970 -33.427840 12.623021 -25.309271 0.835273 31.733207 -5.866532 -13.083937 36.860803 -51.628479 -11.077515 -3.280397 2.748879 0.889400 -0.276390 0.592290 -0.030800 -16.636998 26.760168 5.732547 -4.354917 9.750498 -16.495501 3.134289 67.301522 3.210412 1.872505 -1.494822 -0.064940 0.272990 0.219370 0.059570 
-0.978360 16.265600 -3.630140 -5.676429 -8.898766 1.802684 -15.774488 9.795583 5.592087 4.422593 -12.376734 -58.588915 30.921872 -7.107632 77.034886 1.724683 13.302863 -0.054023 0.077440 0.132310 0.079290 18.578915 -6.718345 5.179445 -6.918345 18.856092 -52.964940 -3.193782 -12.214802 81.485742 -2.459907 -12.081345 0.180915 -0.199340 0.050280 0.351130 -3.349306 -2.127349 -10.329703 12.884113 -0.163176 60.782149 -4.618622 8.490823 -0.364464 1.993458 4.359189 -13.520863 3.561558 -7.613805 53.231011 9.581510 -3.464310 -31.500200 12.827327 -26.055660 2.340048 32.006101 -8.052816 -10.139834 18.453614 -40.834637 -1.918645 -3.271483 2.956143 0.834420 -0.296080 0.617390 0.021550 -16.800008 27.598155 3.477910 -12.241599 10.621939 -15.915623 17.944877 72.265387 12.993944 1.956982 -1.797961 -0.001810 0.252880 0.142610 0.110610 
-0.952560 16.251610 -3.597750 -4.800420 -13.475492 1.725415 -15.879341 9.828492 5.598104 7.376297 -11.173575 -59.408954 27.794683 -3.456623 81.102564 1.756003 13.534234 -0.145910 0.054320 0.082710 0.125100 18.483380 -6.575063 5.192963 -10.467641 18.454960 -53.981524 0.199852 -14.876236 80.875155 -2.485442 -12.302527 0.089269 -0.241750 -0.014270 0.350090 -3.162388 -2.348096 -10.346401 12.386005 1.976184 60.585808 -3.916784 10.498922 -0.869585 2.496340 6.325174 -15.258021 7.894328 -10.357755 54.597639 9.231420 -5.113200 -31.141120 13.434706 -27.462612 4.627119 29.743299 -8.804200 -6.974038 4.092560 -28.380948 2.012996 -3.217238 2.833954 0.851710 -0.327140 0.638270 -0.033020 -18.406193 28.113082 1.840802 -16.709646 10.659443 -16.213675 35.303796 77.387885 25.796333 1.888005 -2.203420 0.011510 0.211830 0.146090 0.081670 
-0.916180 16.300860 -3.570190 -4.507109 -17.723001 1.320912 -15.930677 9.778686 5.453991 11.037732 -9.237580 -58.935376 24.805971 0.392670 83.083160 1.718078 13.629089 -0.173578 0.028150 0.078220 0.107000 18.444591 -6.416075 5.373512 -15.281484 18.324333 -55.737655 6.912403 -20.132572 79.470685 -2.608541 -12.990597 -0.081918 -0.223330 0.028370 0.320070 -3.146540 -2.314092 -10.361231 13.263072 2.473102 60.856156 -4.033138 11.280125 0.779521 3.090174 7.556476 -16.154707 11.427890 -12.217688 51.587028 9.115750 -6.445940 -30.839440 13.502987 -27.671386 7.469060 25.045066 -9.012206 -4.157735 -0.132976 -16.441568 1.175367 -3.378572 2.374610 0.811480 -0.294630 0.603500 -0.041180 -19.971536 27.346889 -0.096439 -18.879521 12.088866 -16.994004 45.664858 83.585910 34.621594 1.800287 -2.515147 -0.012260 0.267120 0.166280 0.093770 
-0.885930 16.403330 -3.531250 -4.787447 -20.967677 1.591273 -15.977008 9.689490 5.313556 15.190892 -6.877353 -58.039123 21.205112 4.660916 82.826849 1.704504 13.494840 -0.133211 -0.038300 -0.013370 0.105860 18.416594 -6.156088 5.683092 -20.640077 18.176942 -57.995801 15.793989 -25.911829 75.501143 -2.761034 -13.594116 -0.213927 -0.303280 -0.005780 0.303730 -3.149469 -2.356918 -10.481192 14.866501 1.522241 61.503853 -5.159306 11.223910 0.802855 3.598424 8.105294 -18.746576 13.795508 -13.616883 50.961485 7.804840 -7.277780 -29.474160 12.605206 -28.816897 11.473641 18.049242 -6.583507 -2.344278 -2.160223 -8.760924 0.002116 -3.526483 1.974586 0.801230 -0.309700 0.598920 -0.068660 -20.415228 27.839798 -0.955679 -20.068712 14.327218 -16.048106 -116.921014 89.007443 -130.815110 1.782122 -2.804966 -0.006530 0.225620 0.162580 0.083630 
-0.866300 16.513680 -3.478740 -5.334572 -23.631608 2.001511 -16.027636 9.573539 5.185932 19.879683 -4.337872 -56.175814 17.313674 8.999170 81.545568 1.641971 13.458640 -0.138372 -0.064120 -0.061410 0.115240 18.393557 -5.898807 5.974066 -26.331631 17.199470 -59.642667 26.267359 -30.516539 68.168354 -2.790785 -13.679381 -0.219950 -0.313680 -0.017270 0.282050 -3.157428 -2.345954 -10.593628 16.128819 0.307386 60.779667 -5.714255 10.233635 0.558515 4.234085 9.009989 -19.148250 17.656219 -14.640653 48.915280 5.040990 -7.061620 -25.808530 9.036716 -30.888739 15.192991 12.376887 -3.029937 -1.570550 -6.121784 -2.067175 -1.261206 -3.712291 1.740644 0.766040 -0.282860 0.557500 -0.081160 -18.584620 29.955984 -2.999971 -17.376627 19.460362 -19.159529 -156.925263 87.441678 -161.654033 2.149972 -2.149436 -0.025680 0.195340 0.154580 0.059510 
-0.839600 16.625310 -3.405870 -6.163381 -25.105557 2.176530 -15.966732 9.340623 5.016203 23.965383 -1.957152 -53.152915 13.421284 12.588935 79.028896 1.541423 13.432176 -0.161083 -0.076680 -0.070570 0.126540 18.464879 -5.943907 6.226483 -32.410796 15.548642 -59.641203 38.236512 -33.260943 57.877451 -2.727286 -13.070993 -0.076453 -0.312450 0.020130 0.333640 -3.442389 -1.673245 -10.638079 20.212233 -2.677388 59.903620 -8.866918 8.724541 0.070341 5.953800 10.116200 -17.230532 21.489204 -15.873036 44.515777 3.263450 -6.256030 -27.495220 3.885266 -32.468782 17.401577 8.632728 -0.574989 -1.180906 -9.140943 1.984524 -2.192343 -3.817927 1.901526 0.754480 -0.236130 0.557070 -0.101090 -16.873889 31.558481 -7.553969 -9.589423 24.102417 -23.503638 111.822533 85.833380 118.390429 1.726575 2.462706 -0.023910 0.206910 0.190990 0.055610 
-0.825990 16.703070 -3.302980 -6.727090 -27.273094 3.618304 -15.888566 8.987206 4.947941 28.756802 0.800050 -49.496411 7.948365 17.400326 75.478407 1.429554 13.610803 -0.222515 -0.020320 -0.020620 0.117480 18.588089 -5.938180 6.490076 -38.589435 13.267538 -60.179421 50.589253 -33.394320 46.316605 -2.535513 -12.075679 0.188689 -0.204840 0.092200 0.316990 -3.893829 -0.901388 -10.729756 24.017238 -4.674269 55.703272 -10.803920 7.001996 4.394782 6.483575 10.476328 -17.022759 21.778402 -16.470892 39.738452 3.742420 -7.969850 -26.369030 -0.081932 -31.440032 16.228648 5.448786 -1.010747 -0.998588 -14.375448 8.458586 -3.995271 -3.929541 2.063521 0.713260 -0.177600 0.478390 -0.052500 -14.257818 30.334561 -2.881777 -6.404823 29.793600 -10.458902 -111.383277 67.933452 -96.635833 2.816539 1.506783 -0.078930 0.256480 0.179700 0.055960 
-0.833690 16.764460 -3.171150 -7.543190 -29.574194 5.467671 -15.797966 8.645066 4.951998 33.788016 3.097313 -44.630442 2.229318 21.748411 71.254063 1.465610 13.794946 -0.281379 0.029400 0.043740 0.091620 18.713735 -6.057877 6.597899 -43.112335 10.675220 -58.983630 61.030159 -30.605339 34.915898 -2.288153 -10.967188 0.468634 -0.135600 0.130470 0.337210 -4.372565 -0.014260 -10.787162 27.929583 -6.091472 49.889698 -12.212912 5.288154 7.261169 7.220730 10.318946 -15.861759 21.359608 -15.692249 37.833696 2.269160 -8.596290 -22.600310 -5.848593 -31.532897 16.139917 0.969970 0.313505 -0.816313 -19.502290 14.742783 -6.156126 -3.890044 2.468523 0.593350 -0.116080 0.407500 -0.012780 -9.772952 30.028944 -0.810464 1.582301 34.553461 -7.195976 -128.632100 61.497042 -119.652747 2.806499 -0.874292 -0.045940 0.212770 0.156520 0.094940 
-0.845540 16.812520 -3.030670 -7.768746 -31.575525 7.110758 -15.620981 8.316085 4.786414 36.945648 4.382801 -39.441715 -2.141991 24.318282 66.883617 1.458758 13.804808 -0.265688 0.059300 0.098190 0.036790 18.905943 -6.347510 6.758323 -48.306113 7.853737 -55.943566 69.917236 -24.273975 22.915043 -2.032670 -9.780750 0.801723 -0.066390 0.221580 0.340440 -5.067299 1.214629 -10.751091 32.816067 -7.265723 43.147372 -14.710133 3.742176 11.223196 8.015084 9.718191 -14.738956 19.957241 -13.984863 37.002538 2.501430 -8.805280 -21.277250 -10.185546 -29.595337 15.224108 -5.077319 0.575176 -0.120794 -19.259153 16.634204 -6.230280 -3.881518 2.682026 0.512310 -0.053730 0.340580 0.043240 -6.393109 27.878691 1.822538 13.103136 38.250849 -1.630439 -142.751983 52.910861 -134.814247 2.561680 -1.300488 -0.052210 0.249120 0.157450 0.141990 
